<?xml version="1.0" encoding="UTF-8"?>
<svg id="Layer_1" data-name="Layer 1" xmlns="http://www.w3.org/2000/svg" viewBox="0 0 167.97 44.99">
  <defs>
    <style>
      .cls-1 {
        fill: #fff;
      }

      .cls-2 {
        fill: none;
      }

      .cls-3 {
        fill: #c1272d;
      }

      .cls-4 {
        fill: #333;
      }
    </style>
  </defs>
  <path class="cls-2" d="M71.24,39.84h-1.35v1.92h1.26c.35,0,.62-.08.8-.24.19-.16.28-.38.28-.67,0-.67-.33-1-.99-1.01Z"/>
  <path class="cls-2" d="M111.16,6c0-1.57-1.16-2.01-2.12-2.01h-8.11v3.9h10.23v-1.89Z"/>
  <path class="cls-2" d="M106.77,15.79c.48,1.8,2.68,2.83,4.37,2.04l.06.02c1.51-.73,2.32-2.6,1.68-4.18-.62-1.79-3.07-2.67-4.62-1.58-1.3.67-1.94,2.32-1.5,3.7Z"/>
  <path class="cls-2" d="M71.79,38.34c.18-.15.27-.37.27-.67,0-.34-.1-.58-.29-.73s-.51-.22-.94-.22h-.94v1.85h1.01c.42,0,.72-.08.9-.23Z"/>
  <path class="cls-2" d="M46.14,25.26c-.3-3.31-.52-6.62-.86-9.93-1.44,3.33-2.97,6.62-4.45,9.94,1.77-.02,3.54,0,5.31,0ZM44.37,20.81c.09,1.02.17,2.04.27,3.07-.55.02-1.1.02-1.66.02.46-1.03.91-2.06,1.39-3.08Z"/>
  <path class="cls-2" d="M138.22,7.7c1.33-.04,2.4-1.49,1.99-2.77-.29-1.28-1.87-2.03-3.05-1.45-.7.35-1.24,1.06-1.3,1.85-.13,1.28,1.07,2.51,2.36,2.37Z"/>
  <path class="cls-4" d="M43.94,29.31c-1.13,0-2.26,0-3.39,0-.76,1.67-1.49,3.35-2.26,5.01-.22.57-.83.87-1.42.82-7.45,0-14.89,0-22.34,0-.54,0-1.13-.18-1.41-.67-.38-.56-.16-1.25-.04-1.85.19-.83.29-1.68.51-2.5.22-.65.71-1.15,1.08-1.72,3.21-4.56,6.41-9.12,9.62-13.68-2.21-.02-4.42.02-6.63-.02-.69,0-1.28-.6-1.29-1.28.02-.79.27-1.54.39-2.32.12-.52.14-1.14.58-1.52.34-.36.86-.41,1.33-.41,5.46,0,10.92,0,16.38,0,.6.01,1.22-.06,1.8.11.54.26.92.85.82,1.46-.09.99-.2,1.99-.32,2.98-.05.64-.51,1.12-.85,1.63-3.27,4.75-6.54,9.5-9.81,14.25,2.39,0,4.79,0,7.18,0,2.78-5.96,5.54-11.94,8.33-17.9-2.09-3.87-5.37-7.09-9.26-9.15-1.82-.99-3.82-1.61-5.82-2.11-2.29-.41-4.64-.62-6.97-.31-2.07.15-4.06.75-5.99,1.46C8.55,3.82,3.92,8.43,1.66,14.05c-.69,1.87-1.31,3.8-1.48,5.8-.57,4.28.22,8.71,2.1,12.58,2.42,4.9,6.68,8.88,11.76,10.92,1.82.66,3.69,1.28,5.63,1.46,5.3.72,10.85-.57,15.29-3.54,4.21-2.83,7.5-7.08,8.98-11.95Z"/>
  <path class="cls-4" d="M44.37,20.81c-.47,1.02-.93,2.05-1.39,3.08.55,0,1.1,0,1.66-.02-.11-1.02-.18-2.04-.27-3.07Z"/>
  <path class="cls-3" d="M15.51,29.58c-.25.38-.6.72-.66,1.19-.18.99-.37,1.98-.55,2.97,6.3,0,12.6.02,18.9-.01.17-.92.31-1.85.51-2.77-3.22.05-6.44-.02-9.65.03,3.91-5.58,7.73-11.22,11.62-16.82.16-.23.35-.47.36-.76.12-.94.19-1.89.3-2.83-6.01,0-12.02,0-18.03,0-.19.93-.36,1.87-.6,2.79,3.11-.06,6.22.04,9.34-.05-.16.17-.31.36-.45.55-3.69,5.24-7.38,10.48-11.07,15.72Z"/>
  <path class="cls-3" d="M37.04,33.74c.88-1.93,1.73-3.87,2.62-5.8,2.24.02,4.49,0,6.73,0,.17,1.93.33,3.86.5,5.79,2.85,0,5.7,0,8.56,0-.82-7.72-1.68-15.44-2.51-23.16-2.88,0-5.76,0-8.65,0-3.59,7.72-7.17,15.44-10.76,23.16,1.17,0,2.34,0,3.51,0ZM45.28,15.33c.34,3.3.56,6.62.86,9.93-1.77,0-3.54-.01-5.31,0,1.48-3.31,3.01-6.61,4.45-9.94Z"/>
  <path class="cls-3" d="M70.03,10.58c-2.64,0-5.29,0-7.93,0-1.63,7.72-3.28,15.44-4.92,23.16,2.63,0,5.26,0,7.89,0,1.67-7.72,3.33-15.44,4.96-23.16Z"/>
  <path class="cls-3" d="M93.36,11.3c.05-.24.1-.48.16-.73-1.12,0-2.24-.01-3.35.01-.02.1-.04.2-.06.29.97.3,1.98.45,2.97.44.09,0,.19-.01.28-.02Z"/>
  <path class="cls-3" d="M87.27,24.32c-.23,1.18-.55,2.35-.7,3.54-.1-1.1-.43-2.16-.65-3.24-1.08-4.68-2.09-9.37-3.21-14.03-2.9-.03-5.8-.01-8.71,0-1.62,7.72-3.28,15.43-4.91,23.15,1.09,0,2.17,0,3.26,0,1.22-5.63,2.46-11.26,3.61-16.91.29,1.63.76,3.23,1.12,4.84.97,4.02,1.95,8.04,2.92,12.06,2.84,0,5.68,0,8.52,0,1.51-6.97,3.03-13.94,4.51-20.92-1.09,0-2.19-.15-3.24-.46-.83,3.99-1.69,7.97-2.53,11.95Z"/>
  <path class="cls-3" d="M72.86,39.16c.37-.14.65-.36.84-.65.19-.29.29-.65.29-1.06,0-.72-.27-1.27-.8-1.64-.54-.38-1.32-.57-2.35-.57h-2.87v8h3.25c.97,0,1.71-.21,2.21-.6.5-.39.74-.98.74-1.77,0-.43-.11-.8-.34-1.1s-.54-.51-.96-.62ZM69.89,36.72h.94c.43,0,.75.07.94.22s.29.39.29.73c0,.29-.09.52-.27.67-.18.15-.48.23-.9.23h-1.01v-1.85ZM71.95,41.51c-.19.16-.45.24-.8.24h-1.26v-1.92h1.35c.66,0,.99.34.99,1.01,0,.29-.09.51-.28.67Z"/>
  <path class="cls-3" d="M79.96,40.46c0,.49-.1.85-.31,1.07-.21.22-.51.33-.91.33-.79,0-1.2-.44-1.22-1.31v-5.31h-1.94v5.27c.01.88.3,1.57.86,2.08.56.51,1.33.76,2.3.76.64,0,1.2-.11,1.68-.34.47-.23.83-.56,1.09-.99s.38-.95.38-1.54v-5.23h-1.93v5.22Z"/>
  <path class="cls-3" d="M85.69,36.81c.2-.15.47-.23.82-.23s.61.09.81.27c.2.18.3.43.3.76h1.92c0-.49-.13-.92-.38-1.3-.25-.38-.61-.67-1.06-.88-.46-.21-.97-.31-1.55-.31s-1.12.09-1.59.28c-.47.19-.84.45-1.1.79s-.39.73-.39,1.17c0,.89.52,1.59,1.55,2.1.32.16.73.32,1.23.49s.85.33,1.05.49c.2.16.3.38.3.66,0,.25-.09.44-.28.58-.18.14-.44.21-.76.21-.5,0-.86-.1-1.08-.3-.22-.2-.33-.52-.33-.95h-1.93c0,.53.13.99.4,1.4.27.4.66.72,1.19.96s1.11.35,1.76.35c.92,0,1.64-.2,2.17-.6s.79-.95.79-1.65c0-.88-.43-1.56-1.3-2.06-.36-.21-.81-.4-1.36-.57-.55-.18-.94-.35-1.16-.52-.22-.17-.33-.35-.33-.56,0-.23.1-.43.3-.58Z"/>
  <path class="cls-3" d="M125.39,6.02c-.17.49,0,.96.34,1.32.06.02.17.07.23.09-.02-.16-.06-.48-.09-.64.24-.2.48-.4.73-.6.06-.18.11-.35.17-.52,2.94.02,5.88,0,8.83,0,.15,1.28,1.31,2.4,2.64,2.26,1.21-.05,2.16-1.1,2.32-2.26,6.61-.03,13.23.03,19.84-.02.9.77,1.71,1.64,2.55,2.47.04.04.13.13.18.18.8-.76,1.54-1.57,2.34-2.34.14-.15.28-.3.42-.44-.91-.93-1.89-1.8-2.77-2.77-.38.41-.77.81-1.17,1.2-.37.36-.71.76-1.09,1.11-.11.07-.34.21-.46.28-1.67-.1-3.35,0-5.02-.02-4.95-.01-9.9.03-14.85-.02-.12-1.54-1.83-2.69-3.28-2.11-.92.32-1.48,1.2-1.65,2.12-2.94.02-5.88,0-8.82,0-.1-.51-.51-.82-.9-1.11.02-.18.05-.53.07-.7-.44.33-.77.83-.56,1.39-.39.22-.78.42-1.18.61.39.17.79.34,1.18.51ZM135.85,5.33c.06-.8.6-1.5,1.3-1.85,1.18-.58,2.76.17,3.05,1.45.41,1.28-.66,2.73-1.99,2.77-1.29.14-2.49-1.09-2.36-2.37Z"/>
  <path class="cls-3" d="M167.26,11.97c-.94-.63-2.04-.96-3.13-1.23-.93-.08-1.87-.11-2.79.08-2.14.45-3.98,1.83-5.42,3.42-2.68,3-4.4,6.71-5.75,10.47-.88,2.5-1.96,4.96-3.58,7.07-.51.7-1.12,1.32-1.69,1.97-.4.36-.81.72-1.22,1.06-.99.85-2.15,1.47-3.33,2.03-2.16.95-4.55,1.28-6.89,1.19-.86-.02-1.71-.21-2.57-.22-.36-.09-.72-.19-1.08-.3-.36-.12-.73-.24-1.1-.35.71-1.1,1.32-2.27,1.79-3.5.76-1.94,1.05-4.02,1.66-6,.11-.37.22-.73.33-1.09.14-.44.27-.88.4-1.31.53.02,1.07.04,1.59.12,2.64.1,5.28.02,7.91-.17,2.02-.42,3.54-2.04,4.62-3.7,1.01-1.5,1.42-3.29,2.28-4.87.18-.34.36-.67.57-.99.26-.38.55-.73.83-1.09,1.03-1.18,2.44-2.13,4.07-2.13-.22-.11-.43-.23-.65-.33-1.61-.79-3.42-1.3-5.23-1.1-1.73.2-3.12,1.44-4.02,2.85-.66,1.04-1.14,2.18-1.71,3.27-.79,1.49-1.28,3.17-2.39,4.47-1.97,1.97-4.87,2.62-7.56,2.78.94-2.47,2.03-4.95,3.68-7.04.27-.34.55-.67.85-.98.17-.17.34-.33.51-.49.04-.04.12-.11.16-.14,1.1-1.04,2.57-1.61,4.08-1.6-.42-.19-.85-.35-1.28-.5-2.14-.99-4.76-.91-6.81.28-2.1,1.15-3.56,3.13-4.76,5.14-.81,1.39-1.39,2.89-1.92,4.41-.13.35-.26.71-.38,1.06-.34,1.02-.68,2.04-.93,3.08-.09.59-.25,1.17-.41,1.75-.29,1.17-.63,2.32-1.07,3.44-.25.68-.54,1.34-.88,1.98-.13.24-.27.48-.4.72-.45.8-.93,1.58-1.5,2.29-1.9,2.55-4.67,4.43-7.75,5.26-2.5.83-5.24.39-7.65-.52-3.46-1.29-6.4-3.86-8.15-7.1-1.98-3.56-2.36-7.89-1.33-11.8.54-2.44,1.81-4.66,3.44-6.53.76-.77,1.52-1.53,2.39-2.17.59-.5,1.23-.91,1.88-1.32.81-.55,1.69-.95,2.55-1.42-.81.79-1.34,1.9-1.17,3.05.14,2.05,2.32,3.64,4.32,3.13,1.59-.36,2.82-1.87,2.81-3.51.01-1.98-1.83-3.72-3.81-3.55-1.41.22-2.78.66-4.1,1.22-.52.23-1.04.48-1.54.76-.71.39-1.37.85-2.02,1.33-.28.22-.55.45-.82.68-2.56,2.23-4.47,5.22-5.28,8.52-.95,3.52-.63,7.34.75,10.7,1.58,3.72,4.5,6.89,8.16,8.65,2.17,1.03,4.52,1.76,6.94,1.8,1.85.1,3.7.04,5.54-.15,2.49-.31,4.94-1.22,6.95-2.73.47-.33.93-.68,1.35-1.06.55-.53,1.09-1.07,1.58-1.66.22-.27.44-.53.65-.81.28-.4.56-.81.85-1.2.26.11.53.22.79.32,2.69,1.23,5.57,2.1,8.54,2.32.87,0,1.73-.03,2.6-.06.22,0,.45-.02.67-.05,1.08-.14,2.13-.44,3.16-.78,1.02-.38,2-.87,2.92-1.46.23-.14.47-.28.7-.43,2.32-1.66,4.17-3.92,5.57-6.39.93-1.61,1.44-3.4,2.14-5.11,1.12-2.82,2.4-5.59,4.13-8.09.13-.2.27-.4.41-.59.28-.38.58-.76.89-1.12.34-.39.69-.76,1.05-1.12.92-.91,2.01-1.68,3.23-2.13.75-.3,1.59-.37,2.38-.19.03-.01.09-.04.12-.06-.23-.14-.47-.29-.71-.42ZM112.88,13.68c.64,1.58-.17,3.45-1.68,4.18l-.06-.02c-1.69.79-3.89-.24-4.37-2.04-.44-1.39.2-3.03,1.5-3.7,1.55-1.09,3.99-.2,4.62,1.58Z"/>
  <path class="cls-3" d="M113.32,28.32c-1.25-1.22-2.49-2.45-3.74-3.67-.15.13-.3.25-.45.39-.85.89-1.72,1.76-2.57,2.64,1.07.65,2.2,1.19,3.25,1.88-1.14-.17-2.3-.2-3.42.11,1.1,1.04,2.16,2.12,3.25,3.18,1.33-1.35,2.63-2.74,4.01-4.04.14,0,.41.02.55.03.34.04.71.09.99.31.4.26.13.92.59,1.14.34.1.78-.02,1.03.26.28.32.02.74.02,1.1.6-.29.71-.93.46-1.5.09-.04.28-.12.37-.15-.18-.56-.85-.53-1.31-.68.73-.74,1.34.51,2.08.43.06-.1.17-.29.22-.39.05-.03.15-.1.21-.13.28-.16.53-.36.78-.56-.59-.26-.98-.81-1.55-1.08-.44.4-1.18,1.12-1.72.48.48-.07.96-.18,1.33-.52-.14-.12-.27-.24-.4-.36.32-.54.09-1.14-.43-1.45.03.3.05.61.06.91-.19.5-.81.39-1.23.52-.24.28-.25.67-.36,1.01-.31.26-.7.34-1.08.42-.33-.02-.7,0-.92-.28Z"/>
  <path class="cls-3" d="M140.66,27.94c-.09.09-.28.27-.37.35-.09.09-.18.19-.27.29-.54.56-1.11,1.1-1.64,1.67-.86-.72-1.56-1.61-2.43-2.31-.48.51-.99,1-1.48,1.5-.4.44-.83.86-1.23,1.31.92.88,1.84,1.76,2.72,2.69.43-.38.85-.77,1.27-1.17.38-.37.76-.74,1.15-1.09.75.78,1.54,1.53,2.31,2.29.52-.53,1.02-1.07,1.55-1.59.24-.25.47-.5.71-.75.15-.13.3-.27.46-.4-.86-.99-1.86-1.84-2.77-2.8Z"/>
  <path class="cls-3" d="M149.1,38.02c-.98.81-2.06,1.51-3.22,2.02-2.44,1.14-5.22,1.49-7.89,1.21-.54-.06-1.07-.14-1.6-.19,1.42.7,3.05.88,4.61,1,1.63.05,3.29-.13,4.81-.75.62-.24,1.19-.59,1.77-.9,1.06-.7,1.98-1.6,2.75-2.6.78-1.01,1.51-2.15,1.91-3.37.03-.1.08-.21.08-.32-.12.09-.2.28-.26.41-.69,1.37-1.82,2.46-2.96,3.48Z"/>
  <path class="cls-4" d="M100.65,9.36h11.64l.18-3.64c.08-1.8-1.21-3.21-3.43-3.21h-9.74c.29.37.29.69.29,1.12v4.75c-1.56,1.87-3.86,2.82-6.23,2.92-.11.51-.22,1.01-.33,1.52.02,0,.04,0,.06,0,2.8-.06,5.56-1.18,7.56-3.46ZM100.93,3.99h8.11c.96,0,2.12.44,2.12,2.01v1.89h-10.23v-3.9Z"/>
  <path class="cls-4" d="M85.89,8.22c-.37.33-.72.66-1.05,1.03,1.37,1.52,3.1,2.56,4.95,3.11.1-.49.21-.98.31-1.48-1.58-.49-3.06-1.38-4.21-2.66Z"/>
  <path class="cls-4" d="M93.08,11.32c-1,.01-2.01-.14-2.97-.44-.1.49-.21.98-.31,1.48,1.06.31,2.15.47,3.24.46.11-.51.22-1.01.33-1.52-.09,0-.19.02-.28.02Z"/>
  <polygon class="cls-4" points="114.8 9.36 116.77 9.36 117.1 9.36 122.97 9.36 122.97 3.29 121.11 3.7 121.5 4.35 121.5 7.89 117.1 7.89 116.77 7.89 116.28 7.89 116.28 0 114.42 .41 114.8 1.06 114.8 9.36"/>
  <polygon class="cls-4" points="120.24 12.67 121.36 11.54 120.24 10.44 119.11 11.54 120.24 12.67"/>
  <path class="cls-4" d="M57.2,38.83h.93v-2.74h-6.36v2.74h.01v.71h-.01v2.68h6.36v-2.68h-.93v-.71ZM54.13,39.54h-1.64v-.71h1.64v.71ZM56.49,39.54h-1.65v-.71h1.65v.71Z"/>
  <path class="cls-4" d="M61.91,38.83h1.62v-2.74h-4.26v6.12h4.26v-2.68h-1.62v-.71ZM61.2,39.54h-1.65v-.71h1.65v.71Z"/>
  <path class="cls-4" d="M63.99,42.21h2.69v-6.12h-2.69v6.12ZM64.27,38.83h1.65v.71h-1.65v-.71Z"/>
  <path class="cls-4" d="M50.13,38.83h1.07v-2.71c-3.21.01-6.42.03-9.62.04-.56.81-1.28,1.73-2.2,2.67h.62v.71h-1.34l.04-.03s-.02.02-.04.03c-1.32,1.23-2.61,2.12-3.68,2.75,5.41-.01,10.81-.03,16.22-.04v-2.71h-1.07v-.71ZM42.36,39.54h-1.65v-.71h1.65v.71ZM44.71,39.54h-1.64v-.71h1.64v.71ZM47.07,39.54h-1.65v-.71h1.65v.71ZM49.43,39.54h-1.65v-.71h1.65v.71Z"/>
  <rect class="cls-1" x="63.53" y="38.83" width=".03" height=".71"/>
  <rect class="cls-1" x="58.13" y="38.83" width=".72" height=".71"/>
  <rect class="cls-1" x="51.2" y="38.83" width=".56" height=".71"/>
  <rect class="cls-1" x="61.91" y="38.83" width="1.62" height=".71"/>
  <rect class="cls-1" x="51.77" y="38.83" width=".01" height=".71"/>
  <rect class="cls-1" x="54.84" y="38.83" width="1.65" height=".71"/>
  <rect class="cls-1" x="59.55" y="38.83" width="1.65" height=".71"/>
  <rect class="cls-1" x="52.49" y="38.83" width="1.64" height=".71"/>
  <rect class="cls-1" x="57.2" y="38.83" width=".93" height=".71"/>
  <rect class="cls-1" x="64.27" y="38.83" width="1.65" height=".71"/>
  <rect class="cls-1" x="50.13" y="38.83" width="1.07" height=".71"/>
  <rect class="cls-1" x="45.42" y="38.83" width="1.65" height=".71"/>
  <rect class="cls-1" x="40.71" y="38.83" width="1.65" height=".71"/>
  <rect class="cls-1" x="43.07" y="38.83" width="1.64" height=".71"/>
  <rect class="cls-1" x="47.78" y="38.83" width="1.65" height=".71"/>
  <polygon class="cls-1" points="39.38 38.83 39.38 38.83 38.85 39.35 39.38 38.83 39.38 38.83"/>
  <path class="cls-1" d="M38.66,39.54h1.34v-.71h-.62s0,0,0,0c-.13.13-.26.26-.39.39-.1.09-.19.19-.29.28"/>
</svg>